<svg xmlns="http://www.w3.org/2000/svg" width="193" height="44" fill="none" viewBox="0 0 193 44">
  <path fill="#111111" d="M61.0178 11.7762c-.3175-3.07436-2.1688-4.56475-5.9683-4.56475-3.5255 0-5.3801 1.2665-5.3801 3.52545 0 1.8981 1.3099 2.9842 4.655 3.7962 3.3918.8154 6.69 1.6274 8.9056 2.6232 2.6232 1.1763 4.7017 3.0276 4.7017 7.2782 0 6.5998-4.9724 9.5372-11.9799 9.5372-7.4152 0-12.5681-3.3016-12.7018-10.0351h6.0585c.0902 3.0743 2.6666 4.9724 6.69 4.9724 3.706 0 5.8313-1.5806 5.8313-4.2506 0-1.7644-.9056-2.9841-4.655-3.7962-3.7059-.8153-6.1019-1.3567-8.2272-2.3057-3.2114-1.447-5.0192-3.6157-5.0192-7.4152 0-5.38015 3.6625-9.22309 10.9841-9.22309s11.8429 4.11362 12.0702 9.85469h-5.9683l.0034.0033Zm23.5577 21.1561v-3.1178c-1.5371 2.533-3.8429 3.706-6.9173 3.706-4.431 0-7.5488-3.3016-7.5488-8.1838V10.6901h5.878v13.7443c0 2.8037 1.2665 4.1604 3.7527 4.1604 2.9841 0 4.5648-2.1253 4.5648-5.0626V10.6901h5.8312v22.2422h-5.5606Zm8.631 0V10.6901h5.5138v2.6666c1.9447-2.9841 4.2037-3.2548 6.5997-3.2548h.769v6.0117c-.542-.0902-1.086-.137-1.628-.137-3.615 0-5.3798 1.8079-5.3798 5.3801V32.929h-5.8781l.0034.0033Zm17.3135.0001V14.8505h-3.301v-4.1604h3.301c0-5.42355 3.118-8.137 9.447-8.137v4.7452c-2.984 0-3.662.81537-3.662 3.3918h3.796v4.1604h-3.796v18.0819h-5.788.003Zm11.53 0V10.6901h5.514v2.6667c1.945-2.9841 4.204-3.2548 6.6-3.2548h.769v6.0117c-.542-.0903-1.086-.137-1.628-.137-3.616 0-5.38 1.8078-5.38 5.3801v11.5723h-5.878l.003.0033Zm15.145-24.90896V2.5531h5.878v5.47034h-5.878Zm0 24.90896V10.6901h5.878v22.2423h-5.878Zm24.543-2.9842c-.816 1.9883-3.212 3.1646-6.102 3.1646-7.325 0-9.855-5.6074-9.855-11.4386 0-6.9173 4.341-11.5723 9.721-11.5723 2.804 0 4.839 1.0861 6.239 3.3451v-2.7569h5.878v22.4695c0 6.69-4.882 10.3057-11.074 10.3057s-10.76-3.5722-10.76-9.3132h5.47c0 2.6666 1.945 4.2506 4.882 4.2506 3.118 0 5.607-1.8547 5.607-4.792v-3.6625h-.006Zm.18-7.5923c0-4.8388-1.674-7.1412-5.019-7.1412s-5.019 2.2156-5.019 6.7803c0 3.9799 2.125 6.5096 5.019 6.5096s5.019-2.396 5.019-6.1487Zm8.285-.5447c0-7.051 4.384-11.7093 11.439-11.7093 7.054 0 11.301 4.6116 11.301 11.7093 0 7.0977-4.384 11.7093-11.301 11.7093-6.918 0-11.439-4.792-11.439-11.7093Zm16.816 0c0-4.5213-1.808-6.7368-5.381-6.7368-3.572 0-5.38 2.2155-5.38 6.7368s1.808 6.7803 5.38 6.7803c3.573 0 5.381-2.259 5.381-6.7803ZM17.1837.534668C8.20788.534668.929688 7.81286.929688 16.7886c0 .2908.006683.5815.023391.8689.390981.4678.768591.9256 1.136171 1.3667 2.26233 2.8304 4.1838 5.1997 6.22223 5.1997 3.05432 0 4.87222-1.711 4.98582-4.8789-2.1487-2.2623-6.10529-7.6625-4.06686-11.73932.11362-.22389.43776-.45113.77866-.56475.1136-.02673.2205-.07017.3174-.07017.2974-.00334.538.11362.7051.28404.3409.34085 1.0159.7853 1.6976 1.23643 1.7778 1.2832 4.0735 2.83377 5.2297 4.71177.6951 1.8881.6951 2.8104.6951 2.8104s.4545-.8221.4545-1.8881c1.4001.2974 2.944 1.3801 4.5814 2.5363 1.1329.792 2.1788 1.5773 2.9708 1.8046.3408.1136 1.3601.03 1.5873.7084.1136.3409-.2105.6015-.5681 1.0894-1.4737 2.3793-4.6617 3.0576-8.6216 2.2657-.5179 3.4619-1.6908 7.1378-3.6792 10.4193.5915.0635 1.193.0969 1.8046.0969 8.9757 0 16.2539-7.2782 16.2539-16.2539 0-8.97579-7.2748-16.257332-16.2539-16.257332Z"></path>
</svg>
